<svg width="712" height="173" viewBox="0 0 712 173" fill="none" xmlns="http://www.w3.org/2000/svg">
<rect x="0.5" y="14.5" width="711" height="94" fill="#282C33"/>
<rect x="0.5" y="14.5" width="711" height="94" stroke="#ABB2BF"/>
<path d="M46.352 53.44L44.06 70H40.808L39.176 57.748L37.484 70H34.16L32.048 53.44H34.736L36.044 67.312L37.796 55.36H40.664L42.32 67.312L43.868 53.44H46.352ZM55.4506 57.328V68.032H58.8946V70H48.9706V68.032H52.7626V59.296H49.0906V57.328H55.4506ZM53.5786 51.124C54.1066 51.124 54.5306 51.284 54.8506 51.604C55.1786 51.924 55.3426 52.324 55.3426 52.804C55.3426 53.284 55.1786 53.688 54.8506 54.016C54.5306 54.344 54.1066 54.508 53.5786 54.508C53.0666 54.508 52.6466 54.344 52.3186 54.016C51.9906 53.688 51.8266 53.284 51.8266 52.804C51.8266 52.324 51.9906 51.924 52.3186 51.604C52.6466 51.284 53.0666 51.124 53.5786 51.124ZM73.5013 69.328C73.0373 69.624 72.4813 69.864 71.8333 70.048C71.1853 70.232 70.5093 70.324 69.8053 70.324C68.3333 70.324 67.2133 69.944 66.4453 69.184C65.6853 68.416 65.3053 67.408 65.3053 66.16V59.284H62.4853V57.328H65.3053V54.496L67.9933 54.172V57.328H72.2653L71.9653 59.284H67.9933V66.136C67.9933 66.816 68.1613 67.324 68.4973 67.66C68.8413 67.988 69.4013 68.152 70.1773 68.152C70.6413 68.152 71.0693 68.096 71.4613 67.984C71.8533 67.872 72.2093 67.728 72.5293 67.552L73.5013 69.328ZM79.9959 51.976V58.876C80.5079 58.252 81.1079 57.784 81.7959 57.472C82.4839 57.152 83.1919 56.992 83.9199 56.992C85.1119 56.992 85.9999 57.324 86.5839 57.988C87.1679 58.644 87.4599 59.568 87.4599 60.76V70H84.7719V61.18C84.7719 60.42 84.6279 59.876 84.3399 59.548C84.0519 59.212 83.5879 59.044 82.9479 59.044C82.5479 59.044 82.1639 59.136 81.7959 59.32C81.4359 59.496 81.0999 59.728 80.7879 60.016C80.4839 60.304 80.2199 60.612 79.9959 60.94V70H77.3079V52.264L79.9959 51.976ZM116.757 55.72L117.477 57.952C116.973 58.12 116.417 58.232 115.809 58.288C115.209 58.344 114.537 58.372 113.793 58.372C114.553 58.708 115.125 59.14 115.509 59.668C115.893 60.188 116.085 60.828 116.085 61.588C116.085 62.412 115.885 63.148 115.485 63.796C115.085 64.444 114.513 64.952 113.769 65.32C113.025 65.688 112.133 65.872 111.093 65.872C110.725 65.872 110.405 65.856 110.133 65.824C109.869 65.792 109.609 65.74 109.353 65.668C109.193 65.78 109.057 65.932 108.945 66.124C108.841 66.308 108.789 66.504 108.789 66.712C108.789 66.968 108.893 67.192 109.101 67.384C109.317 67.568 109.741 67.66 110.373 67.66H112.581C113.485 67.66 114.281 67.816 114.969 68.128C115.665 68.432 116.209 68.852 116.601 69.388C117.001 69.916 117.201 70.516 117.201 71.188C117.201 72.452 116.657 73.432 115.569 74.128C114.481 74.824 112.913 75.172 110.865 75.172C109.417 75.172 108.281 75.024 107.457 74.728C106.633 74.432 106.053 73.992 105.717 73.408C105.381 72.824 105.213 72.108 105.213 71.26H107.625C107.625 71.7 107.709 72.064 107.877 72.352C108.053 72.64 108.377 72.856 108.849 73C109.321 73.144 110.001 73.216 110.889 73.216C111.777 73.216 112.481 73.14 113.001 72.988C113.529 72.844 113.909 72.632 114.141 72.352C114.381 72.08 114.501 71.752 114.501 71.368C114.501 70.856 114.277 70.46 113.829 70.18C113.381 69.9 112.781 69.76 112.029 69.76H109.857C108.657 69.76 107.777 69.516 107.217 69.028C106.665 68.54 106.389 67.972 106.389 67.324C106.389 66.892 106.509 66.476 106.749 66.076C106.997 65.676 107.349 65.328 107.805 65.032C107.045 64.632 106.489 64.148 106.137 63.58C105.793 63.004 105.621 62.308 105.621 61.492C105.621 60.596 105.845 59.812 106.293 59.14C106.741 58.468 107.361 57.944 108.153 57.568C108.953 57.192 109.873 57.004 110.913 57.004C111.929 57.004 112.777 56.952 113.457 56.848C114.137 56.736 114.729 56.58 115.233 56.38C115.745 56.18 116.253 55.96 116.757 55.72ZM110.937 58.852C110.081 58.852 109.437 59.096 109.005 59.584C108.573 60.064 108.357 60.692 108.357 61.468C108.357 62.268 108.577 62.912 109.017 63.4C109.465 63.88 110.117 64.12 110.973 64.12C111.765 64.12 112.369 63.888 112.785 63.424C113.209 62.96 113.421 62.3 113.421 61.444C113.421 60.58 113.213 59.932 112.797 59.5C112.381 59.068 111.761 58.852 110.937 58.852ZM120.6 70V68.08H122.46V59.236H120.6V57.328H124.512L125.004 60.268C125.476 59.204 126.06 58.396 126.756 57.844C127.46 57.284 128.364 57.004 129.468 57.004C129.844 57.004 130.18 57.036 130.476 57.1C130.78 57.156 131.08 57.232 131.376 57.328L130.572 59.632C130.316 59.56 130.076 59.508 129.852 59.476C129.628 59.436 129.38 59.416 129.108 59.416C128.188 59.416 127.392 59.76 126.72 60.448C126.056 61.136 125.532 62.112 125.148 63.376V68.08H127.704V70H120.6ZM129 61.996V58.876L129.336 57.328H131.376L130.92 61.996H129ZM137.102 64.528C137.158 65.392 137.342 66.1 137.654 66.652C137.966 67.196 138.374 67.596 138.878 67.852C139.39 68.108 139.95 68.236 140.558 68.236C141.182 68.236 141.758 68.14 142.286 67.948C142.814 67.756 143.346 67.484 143.882 67.132L145.046 68.74C144.454 69.22 143.762 69.604 142.97 69.892C142.178 70.18 141.33 70.324 140.426 70.324C139.114 70.324 138.002 70.044 137.09 69.484C136.186 68.924 135.498 68.144 135.026 67.144C134.554 66.144 134.318 64.988 134.318 63.676C134.318 62.404 134.55 61.268 135.014 60.268C135.478 59.26 136.142 58.464 137.006 57.88C137.87 57.288 138.902 56.992 140.102 56.992C141.23 56.992 142.198 57.248 143.006 57.76C143.822 58.272 144.45 59 144.89 59.944C145.338 60.88 145.562 62.008 145.562 63.328C145.562 63.544 145.554 63.76 145.538 63.976C145.53 64.184 145.518 64.368 145.502 64.528H137.102ZM140.126 58.984C139.286 58.984 138.59 59.284 138.038 59.884C137.494 60.484 137.178 61.42 137.09 62.692H142.958C142.934 61.5 142.678 60.584 142.19 59.944C141.71 59.304 141.022 58.984 140.126 58.984ZM158.945 66.892C158.945 67.388 159.021 67.752 159.173 67.984C159.325 68.208 159.569 68.376 159.905 68.488L159.305 70.312C158.681 70.24 158.145 70.068 157.697 69.796C157.249 69.524 156.909 69.112 156.677 68.56C156.213 69.144 155.625 69.584 154.913 69.88C154.201 70.176 153.441 70.324 152.633 70.324C151.353 70.324 150.337 69.964 149.585 69.244C148.841 68.516 148.469 67.564 148.469 66.388C148.469 65.052 148.989 64.024 150.029 63.304C151.069 62.584 152.557 62.224 154.493 62.224H156.305V61.396C156.305 60.58 156.057 59.992 155.561 59.632C155.073 59.272 154.381 59.092 153.485 59.092C153.069 59.092 152.565 59.148 151.973 59.26C151.381 59.364 150.761 59.528 150.113 59.752L149.453 57.856C150.245 57.56 151.021 57.344 151.781 57.208C152.541 57.064 153.245 56.992 153.893 56.992C155.589 56.992 156.853 57.368 157.685 58.12C158.525 58.872 158.945 59.912 158.945 61.24V66.892ZM153.449 68.344C153.993 68.344 154.525 68.2 155.045 67.912C155.565 67.624 155.985 67.22 156.305 66.7V63.904H154.817C153.553 63.904 152.649 64.116 152.105 64.54C151.561 64.956 151.289 65.532 151.289 66.268C151.289 66.94 151.469 67.456 151.829 67.816C152.197 68.168 152.737 68.344 153.449 68.344ZM174.236 69.328C173.772 69.624 173.216 69.864 172.568 70.048C171.92 70.232 171.244 70.324 170.54 70.324C169.068 70.324 167.948 69.944 167.18 69.184C166.42 68.416 166.04 67.408 166.04 66.16V59.284H163.22V57.328H166.04V54.496L168.728 54.172V57.328H173L172.7 59.284H168.728V66.136C168.728 66.816 168.896 67.324 169.232 67.66C169.576 67.988 170.136 68.152 170.912 68.152C171.376 68.152 171.804 68.096 172.196 67.984C172.588 67.872 172.944 67.728 173.264 67.552L174.236 69.328ZM198.613 56.992C199.733 56.992 200.629 57.268 201.301 57.82C201.973 58.364 202.461 59.136 202.765 60.136C203.069 61.128 203.221 62.296 203.221 63.64C203.221 64.928 203.037 66.076 202.669 67.084C202.301 68.092 201.753 68.884 201.025 69.46C200.305 70.036 199.409 70.324 198.337 70.324C197.009 70.324 195.937 69.856 195.121 68.92V74.872L192.433 75.172V57.328H194.773L194.941 58.96C195.421 58.304 195.977 57.812 196.609 57.484C197.249 57.156 197.917 56.992 198.613 56.992ZM197.869 59.068C197.269 59.068 196.741 59.248 196.285 59.608C195.829 59.968 195.441 60.392 195.121 60.88V66.808C195.425 67.264 195.785 67.616 196.201 67.864C196.625 68.104 197.101 68.224 197.629 68.224C198.533 68.224 199.221 67.86 199.693 67.132C200.165 66.404 200.401 65.244 200.401 63.652C200.401 62.572 200.305 61.696 200.113 61.024C199.929 60.344 199.649 59.848 199.273 59.536C198.905 59.224 198.437 59.068 197.869 59.068ZM211.9 56.992C213.14 56.992 214.184 57.268 215.032 57.82C215.88 58.372 216.52 59.144 216.952 60.136C217.392 61.128 217.612 62.296 217.612 63.64C217.612 64.976 217.388 66.148 216.94 67.156C216.5 68.156 215.852 68.936 214.996 69.496C214.148 70.048 213.112 70.324 211.888 70.324C210.664 70.324 209.624 70.056 208.768 69.52C207.92 68.976 207.272 68.204 206.824 67.204C206.384 66.204 206.164 65.024 206.164 63.664C206.164 62.344 206.384 61.184 206.824 60.184C207.272 59.184 207.924 58.404 208.78 57.844C209.636 57.276 210.676 56.992 211.9 56.992ZM211.9 59.08C210.932 59.08 210.204 59.452 209.716 60.196C209.228 60.932 208.984 62.088 208.984 63.664C208.984 65.232 209.224 66.388 209.704 67.132C210.192 67.876 210.92 68.248 211.888 68.248C212.856 68.248 213.58 67.876 214.06 67.132C214.548 66.388 214.792 65.224 214.792 63.64C214.792 62.08 214.552 60.932 214.072 60.196C213.592 59.452 212.868 59.08 211.9 59.08ZM231.126 70H227.766L226.338 61L224.802 70H221.514L219.366 57.328H221.958L223.278 68.332L225.042 58.936H227.73L229.374 68.332L230.694 57.328H233.19L231.126 70ZM237.837 64.528C237.893 65.392 238.077 66.1 238.389 66.652C238.701 67.196 239.109 67.596 239.613 67.852C240.125 68.108 240.685 68.236 241.293 68.236C241.917 68.236 242.493 68.14 243.021 67.948C243.549 67.756 244.081 67.484 244.617 67.132L245.781 68.74C245.189 69.22 244.497 69.604 243.705 69.892C242.913 70.18 242.065 70.324 241.161 70.324C239.849 70.324 238.737 70.044 237.825 69.484C236.921 68.924 236.233 68.144 235.761 67.144C235.289 66.144 235.053 64.988 235.053 63.676C235.053 62.404 235.285 61.268 235.749 60.268C236.213 59.26 236.877 58.464 237.741 57.88C238.605 57.288 239.637 56.992 240.837 56.992C241.965 56.992 242.933 57.248 243.741 57.76C244.557 58.272 245.185 59 245.625 59.944C246.073 60.88 246.297 62.008 246.297 63.328C246.297 63.544 246.289 63.76 246.273 63.976C246.265 64.184 246.253 64.368 246.237 64.528H237.837ZM240.861 58.984C240.021 58.984 239.325 59.284 238.773 59.884C238.229 60.484 237.913 61.42 237.825 62.692H243.693C243.669 61.5 243.413 60.584 242.925 59.944C242.445 59.304 241.757 58.984 240.861 58.984ZM250.115 70V68.08H251.975V59.236H250.115V57.328H254.027L254.519 60.268C254.991 59.204 255.575 58.396 256.271 57.844C256.975 57.284 257.879 57.004 258.983 57.004C259.359 57.004 259.695 57.036 259.991 57.1C260.295 57.156 260.595 57.232 260.891 57.328L260.087 59.632C259.831 59.56 259.591 59.508 259.367 59.476C259.143 59.436 258.895 59.416 258.623 59.416C257.703 59.416 256.907 59.76 256.235 60.448C255.571 61.136 255.047 62.112 254.663 63.376V68.08H257.219V70H250.115ZM258.515 61.996V58.876L258.851 57.328H260.891L260.435 61.996H258.515ZM284.885 68.116C285.477 68.116 286.029 68.016 286.541 67.816C287.053 67.608 287.541 67.34 288.005 67.012L289.253 68.74C288.701 69.212 288.029 69.596 287.237 69.892C286.453 70.18 285.641 70.324 284.801 70.324C283.505 70.324 282.397 70.052 281.477 69.508C280.557 68.956 279.853 68.184 279.365 67.192C278.877 66.2 278.633 65.044 278.633 63.724C278.633 62.436 278.877 61.288 279.365 60.28C279.861 59.264 280.573 58.464 281.501 57.88C282.429 57.288 283.545 56.992 284.849 56.992C285.713 56.992 286.509 57.12 287.237 57.376C287.965 57.632 288.633 58.012 289.241 58.516L288.005 60.208C287.509 59.864 287.001 59.604 286.481 59.428C285.969 59.244 285.441 59.152 284.897 59.152C283.897 59.152 283.077 59.52 282.437 60.256C281.805 60.992 281.489 62.148 281.489 63.724C281.489 64.78 281.633 65.632 281.921 66.28C282.217 66.92 282.621 67.388 283.133 67.684C283.645 67.972 284.229 68.116 284.885 68.116ZM298.243 56.992C299.483 56.992 300.527 57.268 301.375 57.82C302.223 58.372 302.863 59.144 303.295 60.136C303.735 61.128 303.955 62.296 303.955 63.64C303.955 64.976 303.731 66.148 303.283 67.156C302.843 68.156 302.195 68.936 301.339 69.496C300.491 70.048 299.455 70.324 298.231 70.324C297.007 70.324 295.967 70.056 295.111 69.52C294.263 68.976 293.615 68.204 293.167 67.204C292.727 66.204 292.507 65.024 292.507 63.664C292.507 62.344 292.727 61.184 293.167 60.184C293.615 59.184 294.267 58.404 295.123 57.844C295.979 57.276 297.019 56.992 298.243 56.992ZM298.243 59.08C297.275 59.08 296.547 59.452 296.059 60.196C295.571 60.932 295.327 62.088 295.327 63.664C295.327 65.232 295.567 66.388 296.047 67.132C296.535 67.876 297.263 68.248 298.231 68.248C299.199 68.248 299.923 67.876 300.403 67.132C300.891 66.388 301.135 65.224 301.135 63.64C301.135 62.08 300.895 60.932 300.415 60.196C299.935 59.452 299.211 59.08 298.243 59.08ZM316.294 56.992C316.774 56.992 317.206 57.096 317.59 57.304C317.974 57.512 318.274 57.876 318.49 58.396C318.714 58.916 318.826 59.644 318.826 60.58V70H316.438V60.952C316.438 60.288 316.39 59.812 316.294 59.524C316.206 59.236 315.97 59.092 315.586 59.092C315.282 59.092 314.974 59.188 314.662 59.38C314.35 59.564 314.034 59.884 313.714 60.34V70H311.542V60.952C311.542 60.288 311.494 59.812 311.398 59.524C311.31 59.236 311.074 59.092 310.69 59.092C310.378 59.092 310.066 59.188 309.754 59.38C309.45 59.564 309.138 59.884 308.818 60.34V70H306.418V57.328H308.446L308.626 58.696C308.986 58.192 309.378 57.784 309.802 57.472C310.226 57.152 310.738 56.992 311.338 56.992C311.818 56.992 312.254 57.112 312.646 57.352C313.038 57.592 313.326 58.012 313.51 58.612C313.862 58.132 314.262 57.744 314.71 57.448C315.158 57.144 315.686 56.992 316.294 56.992ZM324.181 64.528C324.237 65.392 324.421 66.1 324.733 66.652C325.045 67.196 325.453 67.596 325.957 67.852C326.469 68.108 327.029 68.236 327.637 68.236C328.261 68.236 328.837 68.14 329.365 67.948C329.893 67.756 330.425 67.484 330.961 67.132L332.125 68.74C331.533 69.22 330.841 69.604 330.049 69.892C329.257 70.18 328.409 70.324 327.505 70.324C326.193 70.324 325.081 70.044 324.169 69.484C323.265 68.924 322.577 68.144 322.105 67.144C321.633 66.144 321.396 64.988 321.396 63.676C321.396 62.404 321.629 61.268 322.093 60.268C322.557 59.26 323.221 58.464 324.085 57.88C324.949 57.288 325.981 56.992 327.181 56.992C328.309 56.992 329.277 57.248 330.085 57.76C330.901 58.272 331.529 59 331.969 59.944C332.417 60.88 332.641 62.008 332.641 63.328C332.641 63.544 332.633 63.76 332.617 63.976C332.609 64.184 332.597 64.368 332.581 64.528H324.181ZM327.205 58.984C326.365 58.984 325.669 59.284 325.117 59.884C324.573 60.484 324.257 61.42 324.169 62.692H330.037C330.013 61.5 329.757 60.584 329.269 59.944C328.789 59.304 328.101 58.984 327.205 58.984ZM340.947 68.26C341.787 68.26 342.455 68.112 342.951 67.816C343.447 67.512 343.695 67.096 343.695 66.568C343.695 66.224 343.623 65.932 343.479 65.692C343.335 65.444 343.047 65.22 342.615 65.02C342.183 64.812 341.527 64.596 340.647 64.372C339.815 64.156 339.083 63.9 338.451 63.604C337.827 63.308 337.343 62.924 336.999 62.452C336.655 61.98 336.483 61.372 336.483 60.628C336.483 59.9 336.687 59.264 337.095 58.72C337.503 58.176 338.087 57.752 338.847 57.448C339.615 57.144 340.515 56.992 341.547 56.992C342.611 56.992 343.539 57.132 344.331 57.412C345.123 57.692 345.799 58.04 346.359 58.456L345.231 60.148C344.735 59.82 344.191 59.552 343.599 59.344C343.015 59.136 342.355 59.032 341.619 59.032C340.763 59.032 340.147 59.16 339.771 59.416C339.403 59.672 339.219 60.012 339.219 60.436C339.219 60.748 339.311 61.012 339.495 61.228C339.687 61.436 340.015 61.632 340.479 61.816C340.943 61.992 341.599 62.2 342.447 62.44C343.271 62.664 343.987 62.928 344.595 63.232C345.211 63.536 345.687 63.94 346.023 64.444C346.367 64.94 346.539 65.588 346.539 66.388C346.539 67.3 346.275 68.048 345.747 68.632C345.227 69.208 344.539 69.636 343.683 69.916C342.835 70.188 341.923 70.324 340.947 70.324C339.771 70.324 338.755 70.156 337.899 69.82C337.043 69.476 336.323 69.048 335.739 68.536L337.167 66.904C337.663 67.304 338.231 67.632 338.871 67.888C339.511 68.136 340.203 68.26 340.947 68.26ZM375.788 55.72L376.508 57.952C376.004 58.12 375.448 58.232 374.84 58.288C374.24 58.344 373.568 58.372 372.824 58.372C373.584 58.708 374.156 59.14 374.54 59.668C374.924 60.188 375.116 60.828 375.116 61.588C375.116 62.412 374.916 63.148 374.516 63.796C374.116 64.444 373.544 64.952 372.8 65.32C372.056 65.688 371.164 65.872 370.124 65.872C369.756 65.872 369.436 65.856 369.164 65.824C368.9 65.792 368.64 65.74 368.384 65.668C368.224 65.78 368.088 65.932 367.976 66.124C367.872 66.308 367.82 66.504 367.82 66.712C367.82 66.968 367.924 67.192 368.132 67.384C368.348 67.568 368.772 67.66 369.404 67.66H371.612C372.516 67.66 373.312 67.816 374 68.128C374.696 68.432 375.24 68.852 375.632 69.388C376.032 69.916 376.232 70.516 376.232 71.188C376.232 72.452 375.688 73.432 374.6 74.128C373.512 74.824 371.944 75.172 369.896 75.172C368.448 75.172 367.312 75.024 366.488 74.728C365.664 74.432 365.084 73.992 364.748 73.408C364.412 72.824 364.244 72.108 364.244 71.26H366.656C366.656 71.7 366.74 72.064 366.908 72.352C367.084 72.64 367.408 72.856 367.88 73C368.352 73.144 369.032 73.216 369.92 73.216C370.808 73.216 371.512 73.14 372.032 72.988C372.56 72.844 372.94 72.632 373.172 72.352C373.412 72.08 373.532 71.752 373.532 71.368C373.532 70.856 373.308 70.46 372.86 70.18C372.412 69.9 371.812 69.76 371.06 69.76H368.888C367.688 69.76 366.808 69.516 366.248 69.028C365.696 68.54 365.42 67.972 365.42 67.324C365.42 66.892 365.54 66.476 365.78 66.076C366.028 65.676 366.38 65.328 366.836 65.032C366.076 64.632 365.52 64.148 365.168 63.58C364.824 63.004 364.652 62.308 364.652 61.492C364.652 60.596 364.876 59.812 365.324 59.14C365.772 58.468 366.392 57.944 367.184 57.568C367.984 57.192 368.904 57.004 369.944 57.004C370.96 57.004 371.808 56.952 372.488 56.848C373.168 56.736 373.76 56.58 374.264 56.38C374.776 56.18 375.284 55.96 375.788 55.72ZM369.968 58.852C369.112 58.852 368.468 59.096 368.036 59.584C367.604 60.064 367.388 60.692 367.388 61.468C367.388 62.268 367.608 62.912 368.048 63.4C368.496 63.88 369.148 64.12 370.004 64.12C370.796 64.12 371.4 63.888 371.816 63.424C372.24 62.96 372.452 62.3 372.452 61.444C372.452 60.58 372.244 59.932 371.828 59.5C371.412 59.068 370.792 58.852 369.968 58.852ZM379.631 70V68.08H381.491V59.236H379.631V57.328H383.543L384.035 60.268C384.507 59.204 385.091 58.396 385.787 57.844C386.491 57.284 387.395 57.004 388.499 57.004C388.875 57.004 389.211 57.036 389.507 57.1C389.811 57.156 390.111 57.232 390.407 57.328L389.603 59.632C389.347 59.56 389.107 59.508 388.883 59.476C388.659 59.436 388.411 59.416 388.139 59.416C387.219 59.416 386.423 59.76 385.751 60.448C385.087 61.136 384.563 62.112 384.179 63.376V68.08H386.735V70H379.631ZM388.031 61.996V58.876L388.367 57.328H390.407L389.951 61.996H388.031ZM396.134 64.528C396.19 65.392 396.374 66.1 396.686 66.652C396.998 67.196 397.406 67.596 397.91 67.852C398.422 68.108 398.982 68.236 399.59 68.236C400.214 68.236 400.79 68.14 401.318 67.948C401.846 67.756 402.378 67.484 402.914 67.132L404.078 68.74C403.486 69.22 402.794 69.604 402.002 69.892C401.21 70.18 400.362 70.324 399.458 70.324C398.146 70.324 397.034 70.044 396.122 69.484C395.218 68.924 394.53 68.144 394.058 67.144C393.586 66.144 393.35 64.988 393.35 63.676C393.35 62.404 393.582 61.268 394.046 60.268C394.51 59.26 395.174 58.464 396.038 57.88C396.902 57.288 397.934 56.992 399.134 56.992C400.262 56.992 401.23 57.248 402.038 57.76C402.854 58.272 403.482 59 403.922 59.944C404.37 60.88 404.594 62.008 404.594 63.328C404.594 63.544 404.586 63.76 404.57 63.976C404.562 64.184 404.55 64.368 404.534 64.528H396.134ZM399.158 58.984C398.318 58.984 397.622 59.284 397.07 59.884C396.526 60.484 396.21 61.42 396.122 62.692H401.99C401.966 61.5 401.71 60.584 401.222 59.944C400.742 59.304 400.054 58.984 399.158 58.984ZM417.976 66.892C417.976 67.388 418.052 67.752 418.204 67.984C418.356 68.208 418.6 68.376 418.936 68.488L418.336 70.312C417.712 70.24 417.176 70.068 416.728 69.796C416.28 69.524 415.94 69.112 415.708 68.56C415.244 69.144 414.656 69.584 413.944 69.88C413.232 70.176 412.472 70.324 411.664 70.324C410.384 70.324 409.368 69.964 408.616 69.244C407.872 68.516 407.5 67.564 407.5 66.388C407.5 65.052 408.02 64.024 409.06 63.304C410.1 62.584 411.588 62.224 413.524 62.224H415.336V61.396C415.336 60.58 415.088 59.992 414.592 59.632C414.104 59.272 413.412 59.092 412.516 59.092C412.1 59.092 411.596 59.148 411.004 59.26C410.412 59.364 409.792 59.528 409.144 59.752L408.484 57.856C409.276 57.56 410.052 57.344 410.812 57.208C411.572 57.064 412.276 56.992 412.924 56.992C414.62 56.992 415.884 57.368 416.716 58.12C417.556 58.872 417.976 59.912 417.976 61.24V66.892ZM412.48 68.344C413.024 68.344 413.556 68.2 414.076 67.912C414.596 67.624 415.016 67.22 415.336 66.7V63.904H413.848C412.584 63.904 411.68 64.116 411.136 64.54C410.592 64.956 410.32 65.532 410.32 66.268C410.32 66.94 410.5 67.456 410.86 67.816C411.228 68.168 411.768 68.344 412.48 68.344ZM433.267 69.328C432.803 69.624 432.247 69.864 431.599 70.048C430.951 70.232 430.275 70.324 429.571 70.324C428.099 70.324 426.979 69.944 426.211 69.184C425.451 68.416 425.071 67.408 425.071 66.16V59.284H422.251V57.328H425.071V54.496L427.759 54.172V57.328H432.031L431.731 59.284H427.759V66.136C427.759 66.816 427.927 67.324 428.263 67.66C428.607 67.988 429.167 68.152 429.943 68.152C430.407 68.152 430.835 68.096 431.227 67.984C431.619 67.872 431.975 67.728 432.295 67.552L433.267 69.328ZM453.696 64.528C453.752 65.392 453.936 66.1 454.248 66.652C454.56 67.196 454.968 67.596 455.472 67.852C455.984 68.108 456.544 68.236 457.152 68.236C457.776 68.236 458.352 68.14 458.88 67.948C459.408 67.756 459.94 67.484 460.476 67.132L461.64 68.74C461.048 69.22 460.356 69.604 459.564 69.892C458.772 70.18 457.924 70.324 457.02 70.324C455.708 70.324 454.596 70.044 453.684 69.484C452.78 68.924 452.092 68.144 451.62 67.144C451.148 66.144 450.912 64.988 450.912 63.676C450.912 62.404 451.144 61.268 451.608 60.268C452.072 59.26 452.736 58.464 453.6 57.88C454.464 57.288 455.496 56.992 456.696 56.992C457.824 56.992 458.792 57.248 459.6 57.76C460.416 58.272 461.044 59 461.484 59.944C461.932 60.88 462.156 62.008 462.156 63.328C462.156 63.544 462.148 63.76 462.132 63.976C462.124 64.184 462.112 64.368 462.096 64.528H453.696ZM456.72 58.984C455.88 58.984 455.184 59.284 454.632 59.884C454.088 60.484 453.772 61.42 453.684 62.692H459.552C459.528 61.5 459.272 60.584 458.784 59.944C458.304 59.304 457.616 58.984 456.72 58.984ZM471.423 52.24V66.544C471.423 67.128 471.599 67.544 471.951 67.792C472.311 68.032 472.775 68.152 473.343 68.152C473.711 68.152 474.059 68.112 474.387 68.032C474.715 67.952 475.035 67.852 475.347 67.732L476.031 69.604C475.655 69.796 475.191 69.964 474.639 70.108C474.095 70.252 473.471 70.324 472.767 70.324C471.495 70.324 470.503 69.968 469.791 69.256C469.087 68.536 468.735 67.552 468.735 66.304V54.22H464.907V52.24H471.423ZM482.477 64.528C482.533 65.392 482.717 66.1 483.029 66.652C483.341 67.196 483.749 67.596 484.253 67.852C484.765 68.108 485.325 68.236 485.933 68.236C486.557 68.236 487.133 68.14 487.661 67.948C488.189 67.756 488.721 67.484 489.257 67.132L490.421 68.74C489.829 69.22 489.137 69.604 488.345 69.892C487.553 70.18 486.705 70.324 485.801 70.324C484.489 70.324 483.377 70.044 482.465 69.484C481.561 68.924 480.873 68.144 480.401 67.144C479.929 66.144 479.693 64.988 479.693 63.676C479.693 62.404 479.925 61.268 480.389 60.268C480.853 59.26 481.517 58.464 482.381 57.88C483.245 57.288 484.277 56.992 485.477 56.992C486.605 56.992 487.573 57.248 488.381 57.76C489.197 58.272 489.825 59 490.265 59.944C490.713 60.88 490.937 62.008 490.937 63.328C490.937 63.544 490.929 63.76 490.913 63.976C490.905 64.184 490.893 64.368 490.877 64.528H482.477ZM485.501 58.984C484.661 58.984 483.965 59.284 483.413 59.884C482.869 60.484 482.553 61.42 482.465 62.692H488.333C488.309 61.5 488.053 60.584 487.565 59.944C487.085 59.304 486.397 58.984 485.501 58.984ZM500.744 68.116C501.336 68.116 501.888 68.016 502.4 67.816C502.912 67.608 503.4 67.34 503.864 67.012L505.112 68.74C504.56 69.212 503.888 69.596 503.096 69.892C502.312 70.18 501.5 70.324 500.66 70.324C499.364 70.324 498.256 70.052 497.336 69.508C496.416 68.956 495.712 68.184 495.224 67.192C494.736 66.2 494.492 65.044 494.492 63.724C494.492 62.436 494.736 61.288 495.224 60.28C495.72 59.264 496.432 58.464 497.36 57.88C498.288 57.288 499.404 56.992 500.708 56.992C501.572 56.992 502.368 57.12 503.096 57.376C503.824 57.632 504.492 58.012 505.1 58.516L503.864 60.208C503.368 59.864 502.86 59.604 502.34 59.428C501.828 59.244 501.3 59.152 500.756 59.152C499.756 59.152 498.936 59.52 498.296 60.256C497.664 60.992 497.348 62.148 497.348 63.724C497.348 64.78 497.492 65.632 497.78 66.28C498.076 66.92 498.48 67.388 498.992 67.684C499.504 67.972 500.088 68.116 500.744 68.116ZM519.611 69.328C519.147 69.624 518.591 69.864 517.943 70.048C517.295 70.232 516.619 70.324 515.915 70.324C514.443 70.324 513.323 69.944 512.555 69.184C511.795 68.416 511.415 67.408 511.415 66.16V59.284H508.595V57.328H511.415V54.496L514.103 54.172V57.328H518.375L518.075 59.284H514.103V66.136C514.103 66.816 514.271 67.324 514.607 67.66C514.951 67.988 515.511 68.152 516.287 68.152C516.751 68.152 517.179 68.096 517.571 67.984C517.963 67.872 518.319 67.728 518.639 67.552L519.611 69.328ZM523.537 70V68.08H525.397V59.236H523.537V57.328H527.449L527.941 60.268C528.413 59.204 528.997 58.396 529.693 57.844C530.397 57.284 531.301 57.004 532.405 57.004C532.781 57.004 533.117 57.036 533.413 57.1C533.717 57.156 534.017 57.232 534.313 57.328L533.509 59.632C533.253 59.56 533.013 59.508 532.789 59.476C532.565 59.436 532.317 59.416 532.045 59.416C531.125 59.416 530.329 59.76 529.657 60.448C528.993 61.136 528.469 62.112 528.085 63.376V68.08H530.641V70H523.537ZM531.937 61.996V58.876L532.273 57.328H534.313L533.857 61.996H531.937ZM544.732 57.328V68.032H548.176V70H538.252V68.032H542.044V59.296H538.372V57.328H544.732ZM542.86 51.124C543.388 51.124 543.812 51.284 544.132 51.604C544.46 51.924 544.624 52.324 544.624 52.804C544.624 53.284 544.46 53.688 544.132 54.016C543.812 54.344 543.388 54.508 542.86 54.508C542.348 54.508 541.928 54.344 541.6 54.016C541.272 53.688 541.108 53.284 541.108 52.804C541.108 52.324 541.272 51.924 541.6 51.604C541.928 51.284 542.348 51.124 542.86 51.124ZM558.307 68.116C558.899 68.116 559.451 68.016 559.963 67.816C560.475 67.608 560.963 67.34 561.427 67.012L562.674 68.74C562.123 69.212 561.451 69.596 560.659 69.892C559.875 70.18 559.063 70.324 558.223 70.324C556.927 70.324 555.819 70.052 554.899 69.508C553.979 68.956 553.275 68.184 552.787 67.192C552.299 66.2 552.055 65.044 552.055 63.724C552.055 62.436 552.299 61.288 552.787 60.28C553.283 59.264 553.995 58.464 554.923 57.88C555.851 57.288 556.967 56.992 558.271 56.992C559.135 56.992 559.931 57.12 560.659 57.376C561.387 57.632 562.055 58.012 562.663 58.516L561.427 60.208C560.931 59.864 560.423 59.604 559.903 59.428C559.391 59.244 558.863 59.152 558.319 59.152C557.319 59.152 556.499 59.52 555.859 60.256C555.227 60.992 554.911 62.148 554.911 63.724C554.911 64.78 555.055 65.632 555.343 66.28C555.639 66.92 556.043 67.388 556.555 67.684C557.067 67.972 557.651 68.116 558.307 68.116ZM573.513 57.328V68.032H576.957V70H567.033V68.032H570.825V59.296H567.153V57.328H573.513ZM571.641 51.124C572.169 51.124 572.593 51.284 572.913 51.604C573.241 51.924 573.405 52.324 573.405 52.804C573.405 53.284 573.241 53.688 572.913 54.016C572.593 54.344 572.169 54.508 571.641 54.508C571.129 54.508 570.709 54.344 570.381 54.016C570.053 53.688 569.889 53.284 569.889 52.804C569.889 52.324 570.053 51.924 570.381 51.604C570.709 51.284 571.129 51.124 571.641 51.124ZM591.564 69.328C591.1 69.624 590.544 69.864 589.896 70.048C589.248 70.232 588.572 70.324 587.868 70.324C586.396 70.324 585.276 69.944 584.508 69.184C583.748 68.416 583.368 67.408 583.368 66.16V59.284H580.548V57.328H583.368V54.496L586.056 54.172V57.328H590.328L590.028 59.284H586.056V66.136C586.056 66.816 586.224 67.324 586.56 67.66C586.904 67.988 587.464 68.152 588.24 68.152C588.704 68.152 589.132 68.096 589.524 67.984C589.916 67.872 590.272 67.728 590.592 67.552L591.564 69.328ZM606.458 57.328L602.09 70.048C601.762 71.008 601.342 71.852 600.83 72.58C600.318 73.316 599.662 73.908 598.862 74.356C598.062 74.804 597.07 75.08 595.886 75.184L595.538 73.168C596.394 73.032 597.074 72.832 597.578 72.568C598.09 72.312 598.494 71.972 598.79 71.548C599.094 71.124 599.362 70.608 599.594 70H598.682L594.41 57.328H597.266L600.458 68.128L603.698 57.328H606.458ZM626.84 58.84C627.28 58.264 627.792 57.812 628.376 57.484C628.968 57.156 629.616 56.992 630.32 56.992C631.432 56.992 632.332 57.268 633.02 57.82C633.716 58.364 634.224 59.136 634.544 60.136C634.872 61.128 635.036 62.296 635.036 63.64C635.036 64.928 634.844 66.076 634.46 67.084C634.076 68.092 633.508 68.884 632.756 69.46C632.012 70.036 631.092 70.324 629.996 70.324C628.58 70.324 627.468 69.8 626.66 68.752L626.516 70H624.152V52.24L626.84 51.94V58.84ZM629.324 68.272C630.236 68.272 630.94 67.9 631.436 67.156C631.94 66.412 632.192 65.244 632.192 63.652C632.192 62.572 632.092 61.696 631.892 61.024C631.692 60.344 631.396 59.848 631.004 59.536C630.62 59.224 630.148 59.068 629.588 59.068C628.988 59.068 628.46 59.248 628.004 59.608C627.548 59.968 627.16 60.392 626.84 60.88V66.808C627.136 67.264 627.492 67.624 627.908 67.888C628.332 68.144 628.804 68.272 629.324 68.272ZM645.466 57.328V68.032H648.91V70H638.986V68.032H642.778V59.296H639.106V57.328H645.466ZM643.594 51.124C644.122 51.124 644.546 51.284 644.866 51.604C645.194 51.924 645.358 52.324 645.358 52.804C645.358 53.284 645.194 53.688 644.866 54.016C644.546 54.344 644.122 54.508 643.594 54.508C643.082 54.508 642.662 54.344 642.334 54.016C642.006 53.688 641.842 53.284 641.842 52.804C641.842 52.324 642.006 51.924 642.334 51.604C642.662 51.284 643.082 51.124 643.594 51.124ZM658.501 52.24V66.544C658.501 67.128 658.677 67.544 659.029 67.792C659.389 68.032 659.853 68.152 660.421 68.152C660.789 68.152 661.137 68.112 661.465 68.032C661.793 67.952 662.113 67.852 662.425 67.732L663.109 69.604C662.733 69.796 662.269 69.964 661.717 70.108C661.173 70.252 660.549 70.324 659.845 70.324C658.573 70.324 657.581 69.968 656.869 69.256C656.165 68.536 655.813 67.552 655.813 66.304V54.22H651.985V52.24H658.501ZM672.892 52.24V66.544C672.892 67.128 673.068 67.544 673.42 67.792C673.78 68.032 674.244 68.152 674.812 68.152C675.18 68.152 675.528 68.112 675.856 68.032C676.184 67.952 676.504 67.852 676.816 67.732L677.5 69.604C677.124 69.796 676.66 69.964 676.108 70.108C675.564 70.252 674.94 70.324 674.236 70.324C672.964 70.324 671.972 69.968 671.26 69.256C670.556 68.536 670.204 67.552 670.204 66.304V54.22H666.376V52.24H672.892Z" fill="white"/>
<rect width="41.472" height="28.704" transform="translate(11)" fill="#282C33"/>
<path d="M29.56 19.616C29.56 21.0453 29.0373 22.2507 27.992 23.232C26.968 24.2133 25.72 24.704 24.248 24.704C22.7333 24.704 21.4747 24.2133 20.472 23.232C19.4907 22.2507 19 21.0453 19 19.616C19 18.9333 19.096 18.208 19.288 17.44C19.48 16.672 19.864 15.68 20.44 14.464L25.4 4H30.2L27.544 15.584C28.1413 16.0107 28.6213 16.576 28.984 17.28C29.368 17.9627 29.56 18.7413 29.56 19.616ZM43.8 19.616C43.8 21.0453 43.2773 22.2507 42.232 23.232C41.1867 24.2133 39.9387 24.704 38.488 24.704C37.016 24.704 35.768 24.2133 34.744 23.232C33.7413 22.2507 33.24 21.0453 33.24 19.616C33.24 18.9333 33.336 18.208 33.528 17.44C33.72 16.672 34.1147 15.68 34.712 14.464L39.704 4H44.472L41.784 15.584C42.4027 16.0107 42.8933 16.576 43.256 17.28C43.6187 17.9627 43.8 18.7413 43.8 19.616Z" fill="#ABB2BF"/>
<rect x="548.5" y="108.5" width="163" height="64" stroke="#ABB2BF"/>
<path d="M567.388 142.364V140.612H577.012V142.364H567.388ZM604.821 140.66C604.821 139.22 604.669 138.068 604.365 137.204C604.061 136.34 603.661 135.692 603.165 135.26C602.669 134.828 602.125 134.54 601.533 134.396C600.949 134.252 600.373 134.18 599.805 134.18H597.861V147.332H599.829C600.421 147.332 601.009 147.24 601.593 147.056C602.185 146.864 602.725 146.528 603.213 146.048C603.701 145.56 604.089 144.884 604.377 144.02C604.673 143.148 604.821 142.028 604.821 140.66ZM607.041 140.66C607.041 142.036 606.893 143.212 606.597 144.188C606.309 145.156 605.913 145.956 605.409 146.588C604.905 147.22 604.329 147.712 603.681 148.064C603.041 148.408 602.365 148.652 601.653 148.796C600.949 148.932 600.257 149 599.577 149H595.785V132.476H599.313C600.281 132.476 601.221 132.584 602.133 132.8C603.053 133.016 603.881 133.416 604.617 134C605.361 134.576 605.949 135.4 606.381 136.472C606.821 137.544 607.041 138.94 607.041 140.66ZM610.704 149V147.452H612.672V137.912H610.704V136.364H614.208L614.58 139.352C615.068 138.312 615.66 137.508 616.356 136.94C617.052 136.372 617.972 136.088 619.116 136.088C619.468 136.088 619.78 136.116 620.052 136.172C620.332 136.22 620.616 136.284 620.904 136.364L620.316 138.164C620.052 138.092 619.812 138.04 619.596 138.008C619.38 137.968 619.132 137.948 618.852 137.948C617.884 137.948 617.052 138.292 616.356 138.98C615.66 139.668 615.104 140.708 614.688 142.1V147.452H617.256V149H610.704ZM618.96 140.636V137.888L619.164 136.364H620.904L620.616 140.636H618.96ZM627.639 147.152C627.639 146.76 627.731 146.408 627.915 146.096C628.099 145.776 628.347 145.524 628.659 145.34C628.979 145.148 629.339 145.052 629.739 145.052C630.147 145.052 630.511 145.148 630.831 145.34C631.151 145.524 631.403 145.776 631.587 146.096C631.771 146.408 631.863 146.76 631.863 147.152C631.863 147.544 631.771 147.904 631.587 148.232C631.403 148.552 631.151 148.808 630.831 149C630.511 149.184 630.147 149.276 629.739 149.276C629.339 149.276 628.979 149.184 628.659 149C628.347 148.808 628.099 148.552 627.915 148.232C627.731 147.904 627.639 147.544 627.639 147.152ZM665.636 132.476L663.116 149H660.38L658.484 136.532L656.576 149H653.78L651.452 132.476H653.54L655.304 146.708L657.284 134.396H659.84L661.724 146.708L663.704 132.476H665.636ZM670.162 131.084V138.092C670.658 137.428 671.266 136.932 671.986 136.604C672.714 136.268 673.45 136.1 674.194 136.1C675.426 136.1 676.326 136.428 676.894 137.084C677.462 137.74 677.746 138.652 677.746 139.82V149H675.73V139.868C675.73 139.108 675.554 138.556 675.202 138.212C674.85 137.86 674.298 137.684 673.546 137.684C673.066 137.684 672.61 137.792 672.178 138.008C671.746 138.224 671.358 138.492 671.014 138.812C670.67 139.132 670.386 139.46 670.162 139.796V149H668.146V131.3L670.162 131.084ZM687.349 136.1C688.541 136.1 689.537 136.372 690.337 136.916C691.145 137.452 691.749 138.212 692.149 139.196C692.557 140.18 692.761 141.34 692.761 142.676C692.761 143.964 692.553 145.104 692.137 146.096C691.721 147.088 691.109 147.868 690.301 148.436C689.501 148.996 688.509 149.276 687.325 149.276C686.141 149.276 685.145 149.004 684.337 148.46C683.529 147.916 682.917 147.152 682.501 146.168C682.093 145.176 681.889 144.02 681.889 142.7C681.889 141.396 682.097 140.248 682.513 139.256C682.929 138.264 683.541 137.492 684.349 136.94C685.165 136.38 686.165 136.1 687.349 136.1ZM687.349 137.744C686.261 137.744 685.437 138.148 684.877 138.956C684.325 139.756 684.049 141.004 684.049 142.7C684.049 144.364 684.321 145.6 684.865 146.408C685.417 147.216 686.237 147.62 687.325 147.62C688.413 147.62 689.229 147.216 689.773 146.408C690.325 145.6 690.601 144.356 690.601 142.676C690.601 140.996 690.329 139.756 689.785 138.956C689.241 138.148 688.429 137.744 687.349 137.744Z" fill="white"/>
<rect width="41.472" height="28.704" transform="translate(654 94)" fill="#282C33"/>
<path d="M672.56 113.616C672.56 115.045 672.037 116.251 670.992 117.232C669.968 118.213 668.72 118.704 667.248 118.704C665.733 118.704 664.475 118.213 663.472 117.232C662.491 116.251 662 115.045 662 113.616C662 112.933 662.096 112.208 662.288 111.44C662.48 110.672 662.864 109.68 663.44 108.464L668.4 98H673.2L670.544 109.584C671.141 110.011 671.621 110.576 671.984 111.28C672.368 111.963 672.56 112.741 672.56 113.616ZM686.8 113.616C686.8 115.045 686.277 116.251 685.232 117.232C684.187 118.213 682.939 118.704 681.488 118.704C680.016 118.704 678.768 118.213 677.744 117.232C676.741 116.251 676.24 115.045 676.24 113.616C676.24 112.933 676.336 112.208 676.528 111.44C676.72 110.672 677.115 109.68 677.712 108.464L682.704 98H687.472L684.784 109.584C685.403 110.011 685.893 110.576 686.256 111.28C686.619 111.963 686.8 112.741 686.8 113.616Z" fill="#ABB2BF"/>
</svg>
